/* XPM */
static char * bitcoin64ca_xpm[] = {
"64 64 195 2",
"  	c None",
". 	c #D4D4D4",
"+ 	c #D6D6D6",
"@ 	c #E4E4E4",
"# 	c #EEEEEE",
"$ 	c #D0D0D0",
"% 	c #B3B3B3",
"& 	c #CFCFCF",
"* 	c #D3D3D3",
"= 	c #C6C6C6",
"- 	c #9C9C9C",
"; 	c #E7E7E7",
"> 	c #D9D9D9",
", 	c #B2B2B2",
"' 	c #CDCDCD",
") 	c #CECECE",
"! 	c #B7B7B7",
"~ 	c #9F9F9F",
"{ 	c #B0B0B0",
"] 	c #D1D1D1",
"^ 	c #DEDEDE",
"/ 	c #E6E6E6",
"( 	c #E0E0E0",
"_ 	c #DFDFDF",
": 	c #E1E1E1",
"< 	c #B4B4B4",
"[ 	c #B1B1B1",
"} 	c #CCCCCC",
"| 	c #D7D7D7",
"1 	c #BEBEBE",
"2 	c #C9C9C9",
"3 	c #E3E3E3",
"4 	c #DDDDDD",
"5 	c #E2E2E2",
"6 	c #D8D8D8",
"7 	c #CBCBCB",
"8 	c #D5D5D5",
"9 	c #9D9D9D",
"0 	c #D2D2D2",
"a 	c #BFBFBF",
"b 	c #B9B9B9",
"c 	c #B6B6B6",
"d 	c #B5B5B5",
"e 	c #BABABA",
"f 	c #C7C7C7",
"g 	c #DADADA",
"h 	c #A1A1A1",
"i 	c #A3A3A3",
"j 	c #E5E5E5",
"k 	c #C8C8C8",
"l 	c #BCBCBC",
"m 	c #C4C4C4",
"n 	c #AFAFAF",
"o 	c #DCDCDC",
"p 	c #EBEBEB",
"q 	c #C1C1C1",
"r 	c #C3C3C3",
"s 	c #ABABAB",
"t 	c #C2C2C2",
"u 	c #A2A2A2",
"v 	c #C5C5C5",
"w 	c #BDBDBD",
"x 	c #7F7F7F",
"y 	c #999999",
"z 	c #979797",
"A 	c #8E8E8E",
"B 	c #A0A0A0",
"C 	c #F4F4F4",
"D 	c #B8B8B8",
"E 	c #A5A5A5",
"F 	c #FDFDFD",
"G 	c #CACACA",
"H 	c #9E9E9E",
"I 	c #ECECEC",
"J 	c #838383",
"K 	c #848484",
"L 	c #A8A8A8",
"M 	c #747474",
"N 	c #6E6E6E",
"O 	c #919191",
"P 	c #AEAEAE",
"Q 	c #A6A6A6",
"R 	c #AAAAAA",
"S 	c #969696",
"T 	c #7E7E7E",
"U 	c #989898",
"V 	c #F8F8F8",
"W 	c #ACACAC",
"X 	c #8A8A8A",
"Y 	c #F7F7F7",
"Z 	c #929292",
"` 	c #606060",
" .	c #171717",
"..	c #010101",
"+.	c #5F5F5F",
"@.	c #A9A9A9",
"#.	c #4F4F4F",
"$.	c #0E0E0E",
"%.	c #1B1B1B",
"&.	c #050505",
"*.	c #656565",
"=.	c #9A9A9A",
"-.	c #8B8B8B",
";.	c #282828",
">.	c #909090",
",.	c #3A3A3A",
"'.	c #3C3C3C",
").	c #0D0D0D",
"!.	c #787878",
"~.	c #696969",
"{.	c #232323",
"].	c #646464",
"^.	c #939393",
"/.	c #9B9B9B",
"(.	c #828282",
"_.	c #797979",
":.	c #949494",
"<.	c #ADADAD",
"[.	c #868686",
"}.	c #FAFAFA",
"|.	c #666666",
"1.	c #858585",
"2.	c #EFEFEF",
"3.	c #090909",
"4.	c #818181",
"5.	c #474747",
"6.	c #323232",
"7.	c #7B7B7B",
"8.	c #757575",
"9.	c #7D7D7D",
"0.	c #BBBBBB",
"a.	c #020202",
"b.	c #545454",
"c.	c #6B6B6B",
"d.	c #8D8D8D",
"e.	c #5C5C5C",
"f.	c #EDEDED",
"g.	c #4E4E4E",
"h.	c #A4A4A4",
"i.	c #7A7A7A",
"j.	c #F0F0F0",
"k.	c #161616",
"l.	c #888888",
"m.	c #EAEAEA",
"n.	c #F6F6F6",
"o.	c #FFFFFF",
"p.	c #4D4D4D",
"q.	c #454545",
"r.	c #777777",
"s.	c #2D2D2D",
"t.	c #636363",
"u.	c #8C8C8C",
"v.	c #959595",
"w.	c #F2F2F2",
"x.	c #FEFEFE",
"y.	c #202020",
"z.	c #555555",
"A.	c #808080",
"B.	c #8F8F8F",
"C.	c #F9F9F9",
"D.	c #A7A7A7",
"E.	c #6A6A6A",
"F.	c #3E3E3E",
"G.	c #393939",
"H.	c #595959",
"I.	c #727272",
"J.	c #DBDBDB",
"K.	c #717171",
"L.	c #7C7C7C",
"M.	c #6C6C6C",
"N.	c #E9E9E9",
"O.	c #737373",
"P.	c #767676",
"Q.	c #F3F3F3",
"R.	c #FCFCFC",
"S.	c #616161",
"T.	c #878787",
"U.	c #6D6D6D",
"V.	c #535353",
"W.	c #505050",
"X.	c #5B5B5B",
"Y.	c #676767",
"Z.	c #5A5A5A",
"`.	c #686868",
" +	c #F5F5F5",
".+	c #F1F1F1",
"++	c #565656",
"@+	c #5D5D5D",
"#+	c #707070",
"$+	c #525252",
"%+	c #585858",
"&+	c #6F6F6F",
"*+	c #FBFBFB",
"=+	c #E8E8E8",
"-+	c #C0C0C0",
"                                                                                                                                ",
"                                                                                                                                ",
"                                                                                                                                ",
"                                                                                                                                ",
"                                                                                                                                ",
"                                                                                                                                ",
"                                                                  . +                                                           ",
"                                                  @ # $ %       & * = -                                                         ",
"                                                  @ ; > , ' ) ) ) . ! ~ {       ]                                               ",
"                                      ^ > , ^ @ @ @ / @ * ^ ( ( _ : = < % [ , } | 1                                             ",
"                                      ) / , 2 ; / 3 4 | * $ $ & ] * | _ 5 6 7 $ 8 9 9                                           ",
"                                    @ 0 + _ : > & = a b c < < < d c e a f ) 8 g 7 h - i                                         ",
"                                @ @ @ j 5 8 k l d , [ [ [ [ [ [ [ [ [ [ , d l m ' $ ! - ~ n , k                                 ",
"                          o p ) | j / 6 k e % [ [ [ [ [ [ [ [ [ [ [ [ [ [ [ [ % b q 2 r s [ t u                                 ",
"                          [ ] @ 6 5 $ a % [ [ [ [ [ [ [ [ [ [ [ [ [ [ [ [ [ [ [ [ % e q v w ~ x y                               ",
"                          ) [ > _ 7 b [ [ [ [ [ [ [ [ [ [ [ [ [ [ [ [ [ [ [ [ [ [ [ [ c l a z A B k C                           ",
"                          @ ^ _ 2 c [ [ [ [ [ [ [ [ [ [ [ [ [ [ [ [ [ [ [ [ [ [ [ [ [ [ % D e E - s ( F                         ",
"                        @ / : G c [ [ [ [ [ [ [ [ [ [ [ [ [ [ [ [ [ [ [ [ [ [ [ [ [ [ [ [ % c d B H { f                         ",
"                  ; ) ] _ j ) D [ [ [ [ [ [ [ [ [ [ [ [ [ [ [ [ [ [ [ [ [ [ [ [ [ [ [ [ [ [ , % n n % m b                       ",
"                  ] I + ( 8 l [ [ [ [ [ [ [ [ [ [ [ [ [ [ [ [ [ [ [ [ [ [ [ [ [ [ [ [ [ [ [ [ [ n , % J K                       ",
"                  - ~ . _ m , [ [ [ [ [ [ [ [ [ [ [ [ [ [ [ [ [ [ [ [ [ [ [ [ [ [ [ [ [ [ [ [ [ n L M N O 2 p                   ",
"                  P Q g $ ! [ [ [ [ [ [ [ [ [ [ [ [ [ [ [ [ [ [ [ [ [ [ [ [ [ [ [ [ [ [ [ [ [ [ { R S T U c j V                 ",
"                  [ q _ t [ [ [ [ [ [ [ [ [ [ [ [ [ [ [ [ [ [ [ n Q s [ [ [ [ [ [ [ [ [ [ [ [ [ [ W h K X , | Y                 ",
"                  [ 6 0 D [ [ [ [ [ [ [ [ [ [ [ [ [ [ [ [ { Z `  .....+.@.[ [ [ [ [ [ [ [ [ [ [ [ P i A K i m Y                 ",
"              ) f q ( k , [ [ [ [ [ [ [ [ [ [ [ [ [ [ [ ~ #...$.%.&.....*.[ [ [ [ [ [ [ [ [ [ [ [ { Q =.n [ P g                 ",
"            ( > 0 8 > 1 [ [ [ [ [ [ [ [ [ [ [ [ [ [ [ -.%.;.K @.[ >..... .W [ [ [ [ [ [ [ [ [ [ [ [ @.U h S X b                 ",
"            R , w 8 $ ! [ [ [ [ [ [ [ [ [ [ [ [ [ [ K ..,.i [ [ [ [ '.).J [ [ [ [ [ [ [ [ [ [ [ [ [ W y !.~.N n o               ",
"              - - 7 2 < [ [ [ [ [ [ [ [ [ [ [ [ [ >.&.{.h [ [ [ [ [ ].^.[ [ [ [ [ [ [ [ [ [ [ [ [ [ P /.(._.:.<.+ p             ",
"              - =.$ m , [ [ [ [ [ [ [ [ [ [ [ [ Q ;...[.[ [ [ [ [ [ W [ [ [ [ [ [ [ [ [ [ [ [ [ [ [ n - [.T B % * p }.          ",
"                /.& q , [ [ [ [ [ [ [ [ [ [ [ [ |...'.n [ [ [ [ [ [ [ [ [ [ [ [ [ [ [ [ [ [ [ [ [ [ { - 1.x =.c & 2.F           ",
"              - - ' 1 [ [ [ [ [ [ [ [ [ [ [ [ h 3...4.[ [ [ [ [ [ [ [ [ [ [ [ [ [ [ [ [ [ [ [ [ [ [ { - 1.A ^.< } C             ",
"              { { G w [ [ [ [ [ [ [ [ [ [ [ [ _.....i [ [ [ [ [ [ [ [ [ [ [ [ [ [ [ [ [ [ [ [ [ [ [ { =.1./.=.B G 2.            ",
"            1 a a f l , [ [ [ [ [ [ [ [ [ [ [ 5...6.{ [ [ [ [ [ [ [ [ [ [ [ [ [ [ [ [ [ [ [ [ [ [ [ n S 7.8.!.9.k _             ",
"            E :.K e 0., [ [ [ [ [ [ [ [ [ [ s a...b.[ [ [ [ [ [ [ [ [ [ [ [ [ [ [ [ [ [ [ [ [ [ [ [ <.O 8.c.c.A r 4             ",
"              1.d., 0.% [ [ [ [ [ [ [ [ [ [ ~ ....e.[ [ [ [ [ [ [ [ [ [ [ [ [ [ [ [ [ [ [ [ [ [ [ [ R -._.T z R m ^ f.          ",
"                - W b % [ [ [ [ [ [ [ [ [ [ - ....g.[ [ [ [ [ [ [ h J [ [ [ [ [ [ [ [ [ [ [ [ [ [ [ h.(.i.[.L % 2 3 j.F         ",
"                E u D < [ [ [ [ [ [ [ [ [ [ E ....).h.[ [ [ [ W 9.k.[.[ [ [ [ [ [ [ [ [ [ [ [ [ [ [ y !.T l.P 0.$ m.n.o.        ",
"                u - [ % [ [ [ [ [ [ [ [ [ [ { p.....q.^.h z r.s...t.R [ [ [ [ [ [ [ [ [ [ [ [ [ [ <.u.7./.v.n q + w.x.          ",
"                - - @.{ [ [ [ [ [ [ [ [ [ [ [ /.y.............z.v.[ [ [ [ [ [ [ [ [ [ [ [ [ [ [ [ u A._.B.U R = > C.            ",
"                D.E ^.W n [ [ [ [ [ [ [ [ [ [ [ h E.F.G.H.9.B [ [ [ [ [ [ [ [ [ [ [ [ [ [ [ [ [ n Z I.E.N r.B G J.              ",
"                O x x =.s n [ [ [ [ [ [ [ [ [ [ [ [ , , [ [ [ [ [ [ [ [ [ [ [ [ [ [ [ [ [ [ [ [ u 4.c.E.K.-.{ ) _               ",
"                  J (.K i R { [ [ [ [ [ [ [ [ [ [ [ [ [ [ [ [ [ [ [ [ [ [ [ [ [ [ [ [ [ [ [ [ W B.K.E.L.i W w 8 3 j.            ",
"                    D x B.u s [ [ [ [ [ [ [ [ [ [ [ [ [ [ [ [ [ [ [ [ [ [ [ [ [ [ [ [ [ [ [ { y i.M.E.H n D G _ N.n.            ",
"                    o ^.O /.h s [ [ [ [ [ [ [ [ [ [ [ [ [ [ [ [ [ [ [ [ [ [ [ [ [ [ [ [ [ [ B (.O.x P.@.D r + m.Q.R.            ",
"                    2.W - u :.B W [ [ [ [ [ [ [ [ [ [ [ [ [ [ [ [ [ [ [ [ [ [ [ [ [ [ [ [ i [.E.S.!.x s q ' 5 Y x.              ",
"                      E @.J K.>.- R [ [ [ [ [ [ [ [ [ [ [ [ [ [ [ [ [ [ [ [ [ [ [ [ [ { h T.U.V.W.e.I.% k 8 #                   ",
"                        x ~.r.4.-.U Q { [ [ [ [ [ [ [ [ [ [ [ [ [ [ [ [ [ [ [ [ [ [ P - K c.V.V.M.r./.a $ 4 Q.                  ",
"                          R 9 J A.T.>.H s [ [ [ [ [ [ [ [ [ [ [ [ [ [ [ [ [ [ [ [ L ^.T M.V.X./.@.<.! 7 g j w.                  ",
"                          ^ = W K =.d.1.Z B s { [ [ [ [ [ [ [ [ [ [ [ [ [ [ { @.=.T.8.].~.t.-.P d l 2 J.@ p V                   ",
"                            4 f B - B.U.r.(.A =.Q <.{ [ [ [ [ [ [ [ [ { W h.S l.!.|.Y.Y.Z.`.h D q G J.N.2. +x.                  ",
"                            .+_ < /.O.E.E.M.I.i.(.-.:.- h E Q Q E h /.^.X x M ].z.#.++~.@+U.% r } > p C.R.x.                    ",
"                              V m.[ (.A d.8.M.9.8.|.#+r.7.T A.A.T 7.P.N U.~.V.W.X.A h - z s t ) 6 / }.                          ",
"                                    + q b n (.x 8.#.].E.E.O.r.].`.z.$+W.|.E.X.W.z n % d b m ] g 5 .+                            ",
"                                      J.) r s x M.#._.T.!.r.L.@+E.%+9.1.8.~.*.&+, 0.q = ) g : / I Y                             ",
"                                      # : 6 ' P u.U { , n z i.Z.N ~ n [ n 9 y [ t 2 ) | @ # .+.+Y x.                            ",
"                                      *+C j.j.=++ 2 = r -+D i A L b 1 -+a 1 r 7 ] + 4 =+V   x.x.o.                              ",
"                                                n.j g 8 0 & } 2 G } ' & 0 6 ^ : : @ N.n.                                        ",
"                                                  n.m./ / I # m.3 ^ ^ ( ; w.n.n.j.j.n.                                          ",
"                                                    }.Y C.      Y f.p 2.C.      F F                                             ",
"                                                                  R.}.F                                                         ",
"                                                                                                                                ",
"                                                                                                                                ",
"                                                                                                                                ",
"                                                                                                                                "};
