/* XPM */
static char * bitcoin161_xpm[] = {
"16 16 65 1",
" 	c None",
".	c #D5D5D5",
"+	c #DBDBDB",
"@	c #CBCBCB",
"#	c #C9C9C9",
"$	c #B9B9B9",
"%	c #D2D2D2",
"&	c #D7D7D7",
"*	c #BCBCBC",
"=	c #B1B1B1",
"-	c #B4B4B4",
";	c #BABABA",
">	c #AFAFAF",
",	c #D6D6D6",
"'	c #B3B3B3",
")	c #B2B2B2",
"!	c #BEBEBE",
"~	c #BBBBBB",
"{	c #ABABAB",
"]	c #9C9C9C",
"^	c #B0B0B0",
"/	c #9D9D9D",
"(	c #C7C7C7",
"_	c #C8C8C8",
":	c #9A9A9A",
"<	c #8A8A8A",
"[	c #767676",
"}	c #A6A6A6",
"|	c #AAAAAA",
"1	c #9B9B9B",
"2	c #ADADAD",
"3	c #737373",
"4	c #979797",
"5	c #E6E6E6",
"6	c #868686",
"7	c #AEAEAE",
"8	c #A7A7A7",
"9	c #888888",
"0	c #DCDCDC",
"a	c #A5A5A5",
"b	c #5F5F5F",
"c	c #858585",
"d	c #A2A2A2",
"e	c #EAEAEA",
"f	c #ACACAC",
"g	c #818181",
"h	c #BDBDBD",
"i	c #8F8F8F",
"j	c #A3A3A3",
"k	c #7C7C7C",
"l	c #949494",
"m	c #DFDFDF",
"n	c #959595",
"o	c #898989",
"p	c #9F9F9F",
"q	c #8D8D8D",
"r	c #777777",
"s	c #D9D9D9",
"t	c #C5C5C5",
"u	c #E3E3E3",
"v	c #ECECEC",
"w	c #E2E2E2",
"x	c #E4E4E4",
"y	c #E8E8E8",
"z	c #F1F1F1",
"                ",
"                ",
"     .+@##$     ",
"   %&*===-;>    ",
"   ,'======)-   ",
"  !~==={]^==/(  ",
"  _===:<[}==|1  ",
"  $==23====={45 ",
"  ===:6=7===890 ",
"  8==abc:===4de ",
"  18==^)===fgh  ",
"   ij====={klm  ",
"   +no:jpqr:s   ",
"     t4ointu    ",
"      vwxyz     ",
"                "};
