/* XPM */
static char * bitcoin32a_xpm[] = {
"32 32 133 2",
"  	c None",
". 	c #E1E1E1",
"+ 	c #D2D2D2",
"@ 	c #BCBCBC",
"# 	c #C5C5C5",
"$ 	c #E4E4E4",
"% 	c #E3E3E3",
"& 	c #CCCCCC",
"* 	c #D7D7D7",
"= 	c #D8D8D8",
"- 	c #B5B5B5",
"; 	c #B1B1B1",
"> 	c #C2C2C2",
", 	c #CFCFCF",
"' 	c #D6D6D6",
") 	c #D5D5D5",
"! 	c #DBDBDB",
"~ 	c #C4C4C4",
"{ 	c #CDCDCD",
"] 	c #D4D4D4",
"^ 	c #D3D3D3",
"/ 	c #BABABA",
"( 	c #A0A0A0",
"_ 	c #D9D9D9",
": 	c #E2E2E2",
"< 	c #B2B2B2",
"[ 	c #B9B9B9",
"} 	c #C6C6C6",
"| 	c #AAAAAA",
"1 	c #B7B7B7",
"2 	c #C1C1C1",
"3 	c #D1D1D1",
"4 	c #DADADA",
"5 	c #BFBFBF",
"6 	c #C0C0C0",
"7 	c #919191",
"8 	c #AFAFAF",
"9 	c #E5E5E5",
"0 	c #B4B4B4",
"a 	c #B3B3B3",
"b 	c #A1A1A1",
"c 	c #DEDEDE",
"d 	c #BDBDBD",
"e 	c #B0B0B0",
"f 	c #ADADAD",
"g 	c #ACACAC",
"h 	c #CBCBCB",
"i 	c #7E7E7E",
"j 	c #EDEDED",
"k 	c #999999",
"l 	c #878787",
"m 	c #969696",
"n 	c #9A9A9A",
"o 	c #D0D0D0",
"p 	c #A9A9A9",
"q 	c #5F5F5F",
"r 	c #6F6F6F",
"s 	c #777777",
"t 	c #000000",
"u 	c #888888",
"v 	c #A6A6A6",
"w 	c #A8A8A8",
"x 	c #464646",
"y 	c #959595",
"z 	c #616161",
"A 	c #A7A7A7",
"B 	c #A4A4A4",
"C 	c #E0E0E0",
"D 	c #B8B8B8",
"E 	c #666666",
"F 	c #757575",
"G 	c #828282",
"H 	c #BBBBBB",
"I 	c #A3A3A3",
"J 	c #8D8D8D",
"K 	c #DFDFDF",
"L 	c #838383",
"M 	c #323232",
"N 	c #A2A2A2",
"O 	c #747474",
"P 	c #7C7C7C",
"Q 	c #B6B6B6",
"R 	c #404040",
"S 	c #989898",
"T 	c #F3F3F3",
"U 	c #929292",
"V 	c #515151",
"W 	c #8E8E8E",
"X 	c #FBFBFB",
"Y 	c #656565",
"Z 	c #282828",
"` 	c #4D4D4D",
" .	c #818181",
"..	c #ABABAB",
"+.	c #848484",
"@.	c #E7E7E7",
"#.	c #868686",
"$.	c #8A8A8A",
"%.	c #AEAEAE",
"&.	c #979797",
"*.	c #9C9C9C",
"=.	c #767676",
"-.	c #F4F4F4",
";.	c #9B9B9B",
">.	c #6E6E6E",
",.	c #626262",
"'.	c #EFEFEF",
").	c #8B8B8B",
"!.	c #6D6D6D",
"~.	c #6C6C6C",
"{.	c #C7C7C7",
"].	c #8C8C8C",
"^.	c #9F9F9F",
"/.	c #6A6A6A",
"(.	c #646464",
"_.	c #EEEEEE",
":.	c #7B7B7B",
"<.	c #949494",
"[.	c #797979",
"}.	c #606060",
"|.	c #676767",
"1.	c #F5F5F5",
"2.	c #737373",
"3.	c #6B6B6B",
"4.	c #CACACA",
"5.	c #DDDDDD",
"6.	c #E8E8E8",
"7.	c #F0F0F0",
"8.	c #F6F6F6",
"9.	c #DCDCDC",
"0.	c #EBEBEB",
"a.	c #E9E9E9",
"b.	c #F9F9F9",
"                                                                ",
"                                                                ",
"                                                                ",
"                          .     + @                             ",
"                    #   $ % & * = - ; > ,                       ",
"                  ' ) ! = & ~ > ~ { ] ^ / (                     ",
"              _ . : , / < ; ; ; ; ; < [ } [ | 1                 ",
"            2 3 4 5 ; ; ; ; ; ; ; ; ; ; ; [ 6 7 8               ",
"            9 ! / ; ; ; ; ; ; ; ; ; ; ; ; ; 0 a b ^             ",
"          _ c d ; ; ; ; ; ; ; ; ; ; ; ; ; ; ; < e f g           ",
"          5 h ; ; ; ; ; ; ; ; ; ; ; ; ; ; ; ; ; g i g j         ",
"        ; ^ 1 ; ; ; ; ; ; ; ; k i l 8 ; ; ; ; ; 8 m n $         ",
"      = & o ; ; ; ; ; ; ; p q r s t u ; ; ; ; ; ; ( v 0         ",
"      w 5 2 ; ; ; ; ; ; | x y ; ; z A ; ; ; ; ; ; B s n C       ",
"        D / ; ; ; ; ; ; E F ; ; ; e ; ; ; ; ; ; ; v G p C       ",
"      | H 1 ; ; ; ; ; b t I ; ; ; ; ; ; ; ; ; ; ; v J b K       ",
"      8 0 1 ; ; ; ; ; L M ; ; ; ; ; ; ; ; ; ; ; ; N O P +       ",
"        I Q ; ; ; ; ; F R ; ; ; f A ; ; ; ; ; ; ; S i A ] T     ",
"        b 0 ; ; ; ; ; G t U v J V v ; ; ; ; ; ; e l W 1 . X     ",
"        b A e ; ; ; ; g Y Z `  ...; ; ; ; ; ; ; v F +.D @.      ",
"        #.u | ; ; ; ; ; ; < ; ; ; ; ; ; ; ; ; e $.r y # @.      ",
"          %.&.| ; ; ; ; ; ; ; ; ; ; ; ; ; ; ; *.=.J [ ! -.      ",
"          ~ ;.W p ; ; ; ; ; ; ; ; ; ; ; ; ; ( >.,.&.h '.        ",
"            J l ).b e ; ; ; ; ; ; ; ; ; 8 S !.~.U D !           ",
"              {.&.+.].N f ; ; ; ; ; f ^. ./.(.v 5 4 j           ",
"              _.[ P s F :.l U <.U #.[.}.|.+.l > _ 1.            ",
"                  ) 5 ].z O 2.>.}.3.~.}.%.@ 4.5.j               ",
"                    6.' 0 H e +.^.D a 1 { 4 7.8.X               ",
"                        '.C 5.9.' * . 0.a.T                     ",
"                          b.    1.T                             ",
"                                                                ",
"                                                                "};
